<?xml version="1.0" standalone="no"?>
<!DOCTYPE svg PUBLIC "-//W3C//DTD SVG 20010904//EN"
 "http://www.w3.org/TR/2001/REC-SVG-20010904/DTD/svg10.dtd">
<svg version="1.0" xmlns="http://www.w3.org/2000/svg"
 width="300.000000pt" height="300.000000pt" viewBox="0 0 300.000000 300.000000"
 preserveAspectRatio="xMidYMid meet">
<metadata>
Created by potrace 1.14, written by Peter Selinger 2001-2017
</metadata>
<g transform="translate(0.000000,300.000000) scale(0.100000,-0.100000)"
fill="#000000" stroke="none">
<path d="M905 2493 c-11 -3 -31 -10 -45 -16 -14 -6 -43 -16 -65 -23 -22 -7
-85 -28 -140 -48 -55 -20 -108 -36 -118 -36 -26 0 -80 -30 -97 -54 -38 -53
-106 -213 -95 -224 2 -3 -1 -14 -7 -26 -12 -22 -27 -74 -33 -119 -3 -16 -14
-57 -25 -90 -10 -34 -29 -106 -41 -160 -21 -97 -22 -180 -2 -322 3 -22 6 -47
5 -55 0 -8 4 -107 10 -220 6 -113 10 -216 9 -230 -1 -13 8 -61 18 -105 11 -44
27 -113 35 -152 27 -121 68 -170 146 -175 19 -1 45 -10 58 -19 28 -22 41 -17
111 35 29 23 63 48 75 56 40 28 67 60 82 95 14 34 13 37 -8 58 -68 68 -168
195 -168 211 0 6 12 24 25 39 24 27 26 27 54 12 28 -14 101 -33 206 -54 55
-11 78 -22 93 -43 14 -19 67 -25 77 -8 4 6 50 10 116 9 l109 -2 1 -26 c1 -14
1 -30 0 -35 -6 -32 64 -50 76 -18 4 9 17 31 30 48 22 29 28 31 106 38 103 8
143 13 237 32 41 8 117 18 168 21 l93 6 40 -38 c21 -22 39 -43 39 -48 0 -11
-55 -91 -87 -125 -90 -96 -96 -134 -28 -196 25 -23 77 -59 116 -80 63 -34 77
-38 119 -33 27 3 70 16 97 28 54 24 247 150 280 183 12 11 34 32 49 46 49 45
67 103 66 214 0 55 -5 136 -11 180 -6 45 -13 140 -15 211 -2 72 -7 140 -9 152
-34 140 -65 240 -165 518 -53 149 -53 148 -69 166 -18 21 -59 143 -67 199 -5
33 -17 56 -45 87 -34 37 -45 42 -97 48 -33 4 -93 16 -135 26 -42 11 -89 21
-105 23 -16 2 -58 11 -94 19 -36 7 -75 14 -88 15 -28 1 -49 -30 -58 -86 -4
-27 -11 -41 -18 -39 -7 3 -22 -1 -35 -8 -19 -9 -34 -9 -80 2 -37 10 -142 16
-312 20 l-257 6 -11 38 c-18 60 -60 86 -116 72z m44 -120 c11 -39 1 -56 -25
-46 -12 4 -25 69 -15 78 14 14 31 1 40 -32z m-124 -2 c8 -13 -35 -41 -62 -41
-32 0 -28 12 10 31 40 20 44 21 52 10z m1345 -91 c0 -5 -2 -10 -4 -10 -3 0 -8
5 -11 10 -3 6 -1 10 4 10 6 0 11 -4 11 -10z m-604 -150 c-4 -56 -16 -81 -16
-33 0 41 -23 60 -54 45 -20 -9 -24 -8 -21 6 2 9 4 20 4 23 1 3 21 7 46 7 l44
2 -3 -50z m-684 -37 c-6 -10 -13 -37 -17 -60 -9 -54 -21 -62 -29 -19 -5 27 -2
39 21 65 31 35 38 39 25 14z m-87 -23 c-3 -5 -10 -10 -16 -10 -5 0 -9 5 -9 10
0 6 7 10 16 10 8 0 12 -4 9 -10z m1255 -53 c0 -18 -2 -19 -10 -7 -13 20 -13
43 0 35 6 -3 10 -16 10 -28z m-665 -29 c-4 -29 -9 -56 -11 -59 -2 -3 -6 -19
-8 -35 -3 -16 -8 -40 -11 -54 -3 -14 -12 -65 -21 -115 -8 -49 -17 -92 -20 -94
-2 -2 -4 30 -4 72 0 41 -5 88 -10 103 -6 15 -7 31 -2 38 5 6 17 34 27 61 27
72 55 135 61 135 3 0 2 -24 -1 -52z m284 -67 c7 -4 -3 -14 -24 -24 -34 -16
-35 -16 -35 2 0 26 30 57 40 41 4 -7 13 -15 19 -19z m-437 -3 c-4 -17 -10 -19
-41 -13 -41 8 -45 10 -38 22 3 4 23 9 45 9 35 2 39 -1 34 -18z m-162 8 c0 -3
-4 -8 -10 -11 -5 -3 -10 -1 -10 4 0 6 5 11 10 11 6 0 10 -2 10 -4z m1335 -6
c3 -5 1 -10 -4 -10 -6 0 -11 5 -11 10 0 6 2 10 4 10 3 0 8 -4 11 -10z m-465
-26 c16 -40 12 -49 -10 -21 -22 27 -26 47 -10 47 6 0 15 -12 20 -26z m-1304
-96 c1 -44 -2 -76 -6 -72 -9 10 -13 52 -11 123 2 75 15 35 17 -51z m1794 34
c0 -8 6 -28 14 -45 47 -104 78 -197 65 -197 -8 0 -48 81 -54 114 -3 10 -13 32
-23 50 -10 17 -22 56 -25 86 -7 52 -6 53 8 30 8 -14 14 -31 15 -38z m-1955 -3
c1 -16 -2 -32 -7 -35 -4 -3 -8 14 -8 37 0 47 13 46 15 -2z m432 19 c-3 -8 -6
-5 -6 6 -1 11 2 17 5 13 3 -3 4 -12 1 -19z m1143 13 c0 -4 11 -24 25 -44 13
-20 20 -39 15 -42 -4 -3 -20 16 -34 41 -29 53 -30 54 -16 54 6 0 10 -4 10 -9z
m-210 -11 c31 -17 87 -133 115 -241 31 -118 36 -189 18 -238 -13 -33 -47 -71
-65 -71 -5 0 -16 -7 -24 -15 -9 -8 -31 -15 -50 -15 -27 0 -43 9 -76 43 -39 40
-87 129 -93 172 -1 11 -5 31 -8 45 -11 44 -19 113 -22 181 -3 60 -1 69 21 89
51 49 140 73 184 50z m-656 -26 c26 -10 52 -78 49 -125 -10 -147 -24 -231 -46
-281 -30 -68 -57 -81 -177 -82 l-55 -1 3 60 c1 33 3 130 5 215 1 104 6 162 15
178 7 12 14 22 15 22 1 0 20 7 42 15 37 14 111 13 149 -1z m1143 -86 c-3 -8
-6 -5 -6 6 -1 11 2 17 5 13 3 -3 4 -12 1 -19z m-313 -14 c3 -8 2 -12 -4 -9 -6
3 -10 10 -10 16 0 14 7 11 14 -7z m-1629 -79 c-2 -41 -10 -65 -18 -54 -7 9 5
109 12 104 4 -2 7 -25 6 -50z m1669 -23 c4 -12 3 -22 -2 -22 -12 0 -32 54 -32
84 1 17 3 15 14 -10 7 -17 17 -40 20 -52z m-1171 -115 c-7 -28 -13 -60 -13
-71 0 -11 -3 -16 -6 -13 -4 3 -15 2 -25 -4 -25 -13 -25 5 0 40 11 15 25 49 32
75 6 26 15 43 19 36 4 -6 1 -34 -7 -63z m1645 48 c-3 -3 -9 2 -12 12 -6 14 -5
15 5 6 7 -7 10 -15 7 -18z m-2041 -57 c-3 -8 -6 -5 -6 6 -1 11 2 17 5 13 3 -3
4 -12 1 -19z m868 -28 c7 -12 -28 -94 -45 -105 -8 -5 -11 -2 -7 11 3 11 9 35
12 54 4 19 9 38 12 43 6 10 21 9 28 -3z m775 -35 c0 -19 -4 -35 -9 -35 -9 0
-12 49 -4 63 9 15 13 6 13 -28z m130 14 c0 -18 -2 -19 -15 -9 -15 12 -12 30 6
30 5 0 9 -10 9 -21z m-1916 -40 c-8 -13 -24 -1 -24 18 0 13 3 13 15 3 8 -7 12
-16 9 -21z m1266 -17 c10 -33 8 -43 -15 -87 l-27 -50 8 75 c4 41 6 83 6 93 -1
28 17 9 28 -31z m-438 -189 c-50 -154 -62 -183 -73 -183 -4 0 0 24 10 53 10
28 19 57 20 62 10 60 67 205 81 205 3 0 -14 -62 -38 -137z m958 103 c0 -15
-24 -66 -31 -66 -10 0 -12 53 -2 63 7 7 33 10 33 3z m85 -55 c3 -5 1 -12 -5
-16 -5 -3 -10 1 -10 9 0 18 6 21 15 7z m-220 -31 c-3 -5 -11 -10 -16 -10 -6 0
-7 5 -4 10 3 6 11 10 16 10 6 0 7 -4 4 -10z m-165 -40 c0 -5 -5 -10 -11 -10
-5 0 -7 5 -4 10 3 6 8 10 11 10 2 0 4 -4 4 -10z m300 -80 c0 -5 -4 -10 -10
-10 -5 0 -10 5 -10 10 0 6 5 10 10 10 6 0 10 -4 10 -10z m-1793 -72 c-3 -8 -6
-5 -6 6 -1 11 2 17 5 13 3 -3 4 -12 1 -19z m2163 -13 c0 -8 -2 -15 -4 -15 -2
0 -6 7 -10 15 -3 8 -1 15 4 15 6 0 10 -7 10 -15z m-1295 -50 c-11 -46 -35 -83
-35 -55 0 21 32 100 40 100 4 0 2 -20 -5 -45z m-361 20 c4 -10 -1 -15 -14 -15
-11 0 -20 7 -20 15 0 8 6 15 14 15 8 0 16 -7 20 -15z m1280 -6 c-3 -5 -10 -7
-15 -3 -5 3 -7 10 -3 15 3 5 10 7 15 3 5 -3 7 -10 3 -15z m-1561 -19 c-3 -11
-9 -20 -14 -20 -11 0 -11 3 -3 24 9 23 23 20 17 -4z m416 -1 c30 -25 22 -34
-21 -20 -18 6 -46 13 -63 17 -27 6 -28 7 -10 14 34 14 69 10 94 -11z m352 -2
c-10 -9 -11 -8 -5 6 3 10 9 15 12 12 3 -3 0 -11 -7 -18z m248 -17 c37 0 13
-17 -31 -23 -42 -5 -43 -5 -26 23 8 13 16 16 22 10 6 -6 21 -10 35 -10z m-257
-22 c-7 -7 -12 -8 -12 -2 0 14 12 26 19 19 2 -3 -1 -11 -7 -17z m916 -48 c-3
-35 -18 -41 -18 -7 0 21 7 37 17 37 2 0 2 -13 1 -30z m349 -70 c13 0 23 -3 23
-7 0 -20 -22 -83 -28 -83 -6 0 -22 39 -39 95 -5 16 -3 18 8 8 7 -7 23 -13 36
-13z m-1951 -119 c-12 -18 -36 -12 -36 8 0 11 -3 28 -6 38 -5 13 0 11 21 -8
15 -15 24 -32 21 -38z m1704 -69 c0 -16 7 -37 15 -48 20 -27 20 -28 -27 -54
l-41 -23 7 44 c14 88 46 145 46 81z m-314 -49 c-10 -10 -19 5 -10 18 6 11 8
11 12 0 2 -7 1 -15 -2 -18z m104 -7 c0 -15 -18 -31 -26 -23 -7 7 7 37 17 37 5
0 9 -6 9 -14z"/>
</g>
</svg>
