<?xml version="1.0" encoding="UTF-8"?><svg id="a" xmlns="http://www.w3.org/2000/svg" viewBox="0 0 500 500"><defs><style>.b{fill:#e6e6e6;stroke-width:0px;}</style></defs><path class="b" d="m250,0C111.93,0,0,111.93,0,250s111.93,250,250,250,250-111.93,250-250S388.07,0,250,0Zm128.12,377.73h0c-15.19,15.19-39.81,15.19-55,0l-72.93-72.93-72.69,72.69c-15.19,15.19-39.81,15.19-55,0h0c-15.19-15.19-15.19-39.81,0-55l72.69-72.69-72.07-72.07c-15.19-15.19-15.19-39.81,0-55h0c15.19-15.19,39.81-15.19,55,0l72.07,72.07,72.31-72.31c15.19-15.19,39.81-15.19,55,0h0c15.19,15.19,15.19,39.81,0,55l-72.31,72.31,72.93,72.93c15.19,15.19,15.19,39.81,0,55Z"/></svg>