<?xml version="1.0" encoding="utf-8"?>
<!-- Generator: Adobe Illustrator 28.1.0, SVG Export Plug-In . SVG Version: 6.00 Build 0)  -->
<svg version="1.1" id="Layer_1" xmlns="http://www.w3.org/2000/svg" xmlns:xlink="http://www.w3.org/1999/xlink" x="0px" y="0px"
	 viewBox="0 0 300 300" style="enable-background:new 0 0 300 300;" xml:space="preserve">
<style type="text/css">
	.st0{fill:#E6E6E6;}
	.st1{fill:#FFFFFF;}
	.st2{fill:none;stroke:#E6E6E6;stroke-width:10;stroke-miterlimit:10;}
</style>
<path class="st0" d="M237.12,23.71l-24.44,24.44l46.76,46.76l24.44-24.44c4.87-4.87,4.87-12.84,0-17.71l-29.05-29.05
	C249.96,18.84,241.99,18.84,237.12,23.71z"/>
<g>
	
		<rect x="83.57" y="110.06" transform="matrix(0.7071 -0.7071 0.7071 0.7071 -53.0307 158.2184)" class="st0" width="161.8" height="66.13"/>
	<path class="st0" d="M70.19,190.65l-10.12,10.12c-4.87,4.87-4.87,12.84,0,17.71l29.05,29.05c4.87,4.87,12.84,4.87,17.71,0
		l10.12-10.12L70.19,190.65z"/>
</g>
<g>
	<path class="st1" d="M71.52,208.06c-3.89-3.89-8.68-2.87-10.64,2.27l-19.45,50.95c-1.96,5.14,0.61,7.65,5.7,5.59l49.95-20.21
		c5.1-2.06,6.09-6.93,2.2-10.82L71.52,208.06z"/>
	<path class="st2" d="M71.52,208.06c-3.89-3.89-8.68-2.87-10.64,2.27l-19.45,50.95c-1.96,5.14,0.61,7.65,5.7,5.59l49.95-20.21
		c5.1-2.06,6.09-6.93,2.2-10.82L71.52,208.06z"/>
</g>
</svg>
